<?xml version="1.0" standalone="no"?>
<!DOCTYPE svg PUBLIC "-//W3C//DTD SVG 20010904//EN"
 "http://www.w3.org/TR/2001/REC-SVG-20010904/DTD/svg10.dtd">
<svg version="1.0" xmlns="http://www.w3.org/2000/svg"
 width="500.000000pt" height="500.000000pt" viewBox="0 0 500.000000 500.000000"
 preserveAspectRatio="xMidYMid meet">
<metadata>
Created by potrace 1.14, written by Peter Selinger 2001-2017
</metadata>
<g transform="translate(0.000000,500.000000) scale(0.100000,-0.100000)"
fill="#000000" stroke="none">
<path d="M1310 3810 c-519 -94 -977 -534 -1142 -1095 -30 -103 -32 -112 -52
-250 -16 -107 -12 -338 8 -451 89 -505 388 -819 858 -902 106 -18 295 -22 393
-8 28 4 66 10 85 13 68 10 205 55 274 89 144 72 252 173 311 289 72 143 68
289 -9 372 -22 24 -102 50 -141 47 -86 -7 -115 -22 -227 -111 -136 -111 -216
-142 -383 -150 -394 -18 -610 215 -600 647 7 278 109 534 283 708 99 100 199
160 320 192 64 16 195 14 231 -4 39 -21 42 -26 51 -101 15 -123 71 -171 187
-162 108 8 191 70 243 183 75 159 72 396 -6 521 -28 45 -93 102 -146 129 -118
60 -347 78 -538 44z"/>
<path d="M2501 3819 c-116 -36 -189 -142 -185 -270 3 -97 35 -172 146 -338 93
-138 185 -337 217 -470 5 -20 23 -83 40 -141 57 -191 61 -205 65 -225 11 -49
117 -358 151 -440 7 -16 25 -59 40 -95 45 -107 161 -339 217 -433 141 -235
247 -316 415 -318 110 -2 186 37 243 123 28 43 123 300 194 523 2 6 6 17 9 25
4 8 23 58 43 110 20 52 41 106 47 120 5 14 11 27 11 30 2 14 99 222 168 363
89 181 186 355 340 616 144 242 175 304 199 402 45 176 0 327 -118 396 -66 39
-173 40 -248 4 -58 -29 -150 -113 -203 -186 -20 -27 -40 -51 -44 -53 -5 -2 -8
-8 -8 -13 0 -6 -18 -37 -40 -70 -22 -33 -40 -62 -40 -64 0 -3 -20 -37 -44 -77
-75 -126 -236 -434 -236 -453 0 -5 -6 -16 -13 -24 -8 -9 -21 -34 -29 -56 -9
-22 -30 -69 -46 -105 -36 -78 -142 -344 -142 -356 0 -5 -6 -20 -13 -34 -7 -14
-21 -52 -31 -85 -11 -33 -23 -71 -29 -85 -6 -14 -11 -31 -13 -38 -5 -27 -13
-23 -29 14 -48 110 -121 316 -171 478 -162 530 -263 793 -364 943 -17 24 -30
46 -30 49 0 3 -17 26 -37 52 -108 132 -192 181 -321 188 -42 2 -92 -1 -111 -7z"/>
</g>
</svg>
